<svg width="96" height="97" xmlns="http://www.w3.org/2000/svg" xmlns:xlink="http://www.w3.org/1999/xlink" xml:space="preserve" overflow="hidden"><defs><clipPath id="clip0"><rect x="1120" y="281" width="96" height="97"/></clipPath><clipPath id="clip1"><rect x="1120" y="282" width="96" height="96"/></clipPath><clipPath id="clip2"><rect x="1120" y="282" width="96" height="96"/></clipPath><clipPath id="clip3"><rect x="1120" y="282" width="96" height="96"/></clipPath></defs><g clip-path="url(#clip0)" transform="translate(-1120 -281)"><g clip-path="url(#clip1)"><g clip-path="url(#clip2)"><g clip-path="url(#clip3)"><path d="M1168 292C1147 292 1130 309 1130 330 1130 351 1147 368 1168 368 1189 368 1206 351 1206 330 1206 309 1189 292 1168 292ZM1166 302C1168.8 302 1171 304.2 1171 307 1171 309.8 1168.8 312 1166 312 1163.2 312 1161 309.8 1161 307 1161 304.2 1163.2 302 1166 302ZM1178 358 1158 358 1158 352 1165 352 1165 322 1159 322 1159 316 1171 316 1171 322 1171 352 1178 352 1178 358Z" fill="#ED7D31" fill-rule="nonzero" fill-opacity="1"/></g></g></g></g></svg>